<mxfile host="Electron" agent="Mozilla/5.0 (Windows NT 10.0; Win64; x64) AppleWebKit/537.36 (KHTML, like Gecko) draw.io/24.7.8 Chrome/128.0.6613.36 Electron/32.0.1 Safari/537.36" version="24.7.8">
  <diagram name="Page-1" id="BfIC7eNF0VdGIpzCooV2">
    <mxGraphModel dx="975" dy="620" grid="0" gridSize="10" guides="1" tooltips="1" connect="1" arrows="1" fold="1" page="1" pageScale="1" pageWidth="827" pageHeight="1169" math="0" shadow="0">
      <root>
        <mxCell id="0" />
        <mxCell id="1" parent="0" />
        <mxCell id="XBc1OOdAeteGwGD6JL_3-2" value="" style="rounded=0;whiteSpace=wrap;html=1;" parent="1" vertex="1">
          <mxGeometry x="70" y="40" width="650" height="1250" as="geometry" />
        </mxCell>
        <mxCell id="XBc1OOdAeteGwGD6JL_3-3" value="" style="whiteSpace=wrap;html=1;aspect=fixed;" parent="1" vertex="1">
          <mxGeometry x="80" y="75" width="70" height="70" as="geometry" />
        </mxCell>
        <mxCell id="XBc1OOdAeteGwGD6JL_3-4" value="Contact" style="text;html=1;align=center;verticalAlign=middle;whiteSpace=wrap;rounded=0;fontStyle=4;fontColor=#0000FF;" parent="1" vertex="1">
          <mxGeometry x="650" y="95" width="60" height="30" as="geometry" />
        </mxCell>
        <mxCell id="XBc1OOdAeteGwGD6JL_3-5" value="About" style="text;html=1;align=center;verticalAlign=middle;whiteSpace=wrap;rounded=0;fontColor=#0000FF;fontStyle=4" parent="1" vertex="1">
          <mxGeometry x="600" y="95" width="60" height="30" as="geometry" />
        </mxCell>
        <mxCell id="XBc1OOdAeteGwGD6JL_3-6" value="Home" style="text;html=1;align=center;verticalAlign=middle;whiteSpace=wrap;rounded=0;strokeColor=none;textShadow=1;fontColor=#0000FF;fontStyle=4" parent="1" vertex="1">
          <mxGeometry x="472" y="95" width="60" height="30" as="geometry" />
        </mxCell>
        <mxCell id="XBc1OOdAeteGwGD6JL_3-7" value="Simulations" style="text;html=1;align=center;verticalAlign=middle;whiteSpace=wrap;rounded=0;fontColor=#0000FF;fontStyle=4" parent="1" vertex="1">
          <mxGeometry x="540" y="95" width="60" height="30" as="geometry" />
        </mxCell>
        <mxCell id="XBc1OOdAeteGwGD6JL_3-8" value="Logo" style="text;html=1;align=center;verticalAlign=middle;whiteSpace=wrap;rounded=0;fontColor=#0000FF;" parent="1" vertex="1">
          <mxGeometry x="80" y="95" width="70" height="30" as="geometry" />
        </mxCell>
        <mxCell id="XBc1OOdAeteGwGD6JL_3-12" value="Inights into Renewable and Non-renewable Capacity Transitions" style="text;html=1;align=center;verticalAlign=middle;whiteSpace=wrap;rounded=0;" parent="1" vertex="1">
          <mxGeometry x="215" y="200" width="360" height="6" as="geometry" />
        </mxCell>
        <mxCell id="XBc1OOdAeteGwGD6JL_3-13" value="&lt;font style=&quot;font-size: 21px;&quot;&gt;Explore Energy Capacity Transition Simulations&lt;/font&gt;" style="text;html=1;align=center;verticalAlign=middle;whiteSpace=wrap;rounded=0;fontSize=27;" parent="1" vertex="1">
          <mxGeometry x="100" y="170" width="590" height="10" as="geometry" />
        </mxCell>
        <mxCell id="XBc1OOdAeteGwGD6JL_3-32" style="edgeStyle=orthogonalEdgeStyle;rounded=0;orthogonalLoop=1;jettySize=auto;html=1;exitX=1;exitY=0.75;exitDx=0;exitDy=0;entryX=1;entryY=0.5;entryDx=0;entryDy=0;" parent="1" source="XBc1OOdAeteGwGD6JL_3-14" target="XBc1OOdAeteGwGD6JL_3-15" edge="1">
          <mxGeometry relative="1" as="geometry" />
        </mxCell>
        <mxCell id="XBc1OOdAeteGwGD6JL_3-14" value="" style="rounded=1;whiteSpace=wrap;html=1;" parent="1" vertex="1">
          <mxGeometry x="337" y="220" width="113" height="30" as="geometry" />
        </mxCell>
        <mxCell id="XBc1OOdAeteGwGD6JL_3-15" value="Run Simulations" style="text;html=1;align=center;verticalAlign=middle;whiteSpace=wrap;rounded=0;fontSize=8;" parent="1" vertex="1">
          <mxGeometry x="350" y="225" width="90" height="25" as="geometry" />
        </mxCell>
        <mxCell id="XBc1OOdAeteGwGD6JL_3-22" value="&lt;h1 style=&quot;margin-top: 0px;&quot;&gt;&lt;span style=&quot;font-size: 15px;&quot;&gt;Heading&lt;/span&gt;&lt;/h1&gt;&lt;p&gt;&lt;font style=&quot;font-size: 7px;&quot;&gt;Lorem ipsum dolor sit amet, consectetur adipisicing elit, sed do eiusmod tempor incididunt ut labore et dolore magna aliqua.&lt;/font&gt;&lt;/p&gt;" style="text;html=1;whiteSpace=wrap;overflow=hidden;rounded=0;spacing=0;" parent="1" vertex="1">
          <mxGeometry x="85" y="255" width="620" height="90" as="geometry" />
        </mxCell>
        <mxCell id="XBc1OOdAeteGwGD6JL_3-26" value="" style="rounded=0;whiteSpace=wrap;html=1;" parent="1" vertex="1">
          <mxGeometry x="107.5" y="340" width="575" height="170" as="geometry" />
        </mxCell>
        <mxCell id="XBc1OOdAeteGwGD6JL_3-27" value="&lt;font style=&quot;font-size: 10px;&quot;&gt;Pre-Project Simulation&lt;/font&gt;" style="text;html=1;align=center;verticalAlign=middle;whiteSpace=wrap;rounded=0;" parent="1" vertex="1">
          <mxGeometry x="325" y="340" width="140" height="30" as="geometry" />
        </mxCell>
        <mxCell id="XBc1OOdAeteGwGD6JL_3-28" value="" style="rounded=1;whiteSpace=wrap;html=1;" parent="1" vertex="1">
          <mxGeometry x="120" y="380" width="160" height="10" as="geometry" />
        </mxCell>
        <mxCell id="XBc1OOdAeteGwGD6JL_3-35" value="" style="rounded=1;whiteSpace=wrap;html=1;" parent="1" vertex="1">
          <mxGeometry x="120" y="420" width="160" height="10" as="geometry" />
        </mxCell>
        <mxCell id="XBc1OOdAeteGwGD6JL_3-36" value="" style="rounded=1;whiteSpace=wrap;html=1;" parent="1" vertex="1">
          <mxGeometry x="120" y="460" width="490" height="10" as="geometry" />
        </mxCell>
        <mxCell id="XBc1OOdAeteGwGD6JL_3-38" value="" style="rounded=1;whiteSpace=wrap;html=1;" parent="1" vertex="1">
          <mxGeometry x="314" y="380" width="151" height="10" as="geometry" />
        </mxCell>
        <mxCell id="XBc1OOdAeteGwGD6JL_3-39" value="" style="rounded=1;whiteSpace=wrap;html=1;" parent="1" vertex="1">
          <mxGeometry x="314" y="420" width="151" height="10" as="geometry" />
        </mxCell>
        <mxCell id="XBc1OOdAeteGwGD6JL_3-40" value="" style="rounded=1;whiteSpace=wrap;html=1;" parent="1" vertex="1">
          <mxGeometry x="505" y="380" width="140" height="10" as="geometry" />
        </mxCell>
        <mxCell id="XBc1OOdAeteGwGD6JL_3-42" value="" style="rounded=1;whiteSpace=wrap;html=1;" parent="1" vertex="1">
          <mxGeometry x="505" y="420" width="140" height="10" as="geometry" />
        </mxCell>
        <mxCell id="XBc1OOdAeteGwGD6JL_3-45" value="Start Year:&lt;font color=&quot;#ff0000&quot;&gt;*&lt;/font&gt;" style="text;html=1;align=center;verticalAlign=middle;whiteSpace=wrap;rounded=0;fontSize=9;" parent="1" vertex="1">
          <mxGeometry x="110" y="360" width="70" height="30" as="geometry" />
        </mxCell>
        <mxCell id="XBc1OOdAeteGwGD6JL_3-46" value="End Year:&lt;font color=&quot;#ff0000&quot;&gt;*&lt;/font&gt;" style="text;html=1;align=center;verticalAlign=middle;whiteSpace=wrap;rounded=0;fontSize=9;" parent="1" vertex="1">
          <mxGeometry x="300" y="360" width="70" height="30" as="geometry" />
        </mxCell>
        <mxCell id="XBc1OOdAeteGwGD6JL_3-47" value="Current Renewable Capacity (MW):&lt;font color=&quot;#ff0000&quot;&gt;*&lt;/font&gt;" style="text;html=1;align=center;verticalAlign=middle;whiteSpace=wrap;rounded=0;fontSize=9;" parent="1" vertex="1">
          <mxGeometry x="120" y="410" width="155" height="10" as="geometry" />
        </mxCell>
        <mxCell id="XBc1OOdAeteGwGD6JL_3-48" value="Non-renewable Capacity Target (MW):&lt;font color=&quot;#ff0000&quot;&gt;*&lt;/font&gt;" style="text;html=1;align=center;verticalAlign=middle;whiteSpace=wrap;rounded=0;fontSize=9;" parent="1" vertex="1">
          <mxGeometry x="120" y="450" width="170" height="10" as="geometry" />
        </mxCell>
        <mxCell id="XBc1OOdAeteGwGD6JL_3-50" value="Current Non-renewable Capacity (MW):&lt;font color=&quot;#ff0000&quot;&gt;*&lt;/font&gt;" style="text;html=1;align=center;verticalAlign=middle;whiteSpace=wrap;rounded=0;fontSize=9;" parent="1" vertex="1">
          <mxGeometry x="309.25" y="410" width="171.5" height="10" as="geometry" />
        </mxCell>
        <mxCell id="XBc1OOdAeteGwGD6JL_3-52" value="Annual Renewable Capacity Additions (MW):&lt;font color=&quot;#ff0000&quot;&gt;*&lt;/font&gt;" style="text;html=1;align=center;verticalAlign=middle;whiteSpace=wrap;rounded=0;fontSize=9;" parent="1" vertex="1">
          <mxGeometry x="480.75" y="370" width="190" height="10" as="geometry" />
        </mxCell>
        <mxCell id="XBc1OOdAeteGwGD6JL_3-53" value="Renewable Capacity Target (MW):&lt;span style=&quot;color: rgb(255, 0, 0);&quot;&gt;*&lt;/span&gt;" style="text;html=1;align=center;verticalAlign=middle;whiteSpace=wrap;rounded=0;fontSize=9;" parent="1" vertex="1">
          <mxGeometry x="500.75" y="410" width="150" height="10" as="geometry" />
        </mxCell>
        <mxCell id="XBc1OOdAeteGwGD6JL_3-58" value="&lt;span style=&quot;color: rgba(0, 0, 0, 0); font-family: monospace; font-size: 0px; text-align: start; text-wrap: nowrap;&quot;&gt;%3CmxGraphModel%3E%3Croot%3E%3CmxCell%20id%3D%220%22%2F%3E%3CmxCell%20id%3D%221%22%20parent%3D%220%22%2F%3E%3CmxCell%20id%3D%222%22%20value%3D%22Run%20Simulations%22%20style%3D%22text%3Bhtml%3D1%3Balign%3Dcenter%3BverticalAlign%3Dmiddle%3BwhiteSpace%3Dwrap%3Brounded%3D0%3BfontSize%3D8%3B%22%20vertex%3D%221%22%20parent%3D%221%22%3E%3CmxGeometry%20x%3D%22341.5%22%20y%3D%22480%22%20width%3D%2290%22%20height%3D%2220%22%20as%3D%22geometry%22%2F%3E%3C%2FmxCell%3E%3C%2Froot%3E%3C%2FmxGraphModel%3E&lt;/span&gt;&lt;span style=&quot;color: rgba(0, 0, 0, 0); font-family: monospace; font-size: 0px; text-align: start; text-wrap: nowrap;&quot;&gt;%3CmxGraphModel%3E%3Croot%3E%3CmxCell%20id%3D%220%22%2F%3E%3CmxCell%20id%3D%221%22%20parent%3D%220%22%2F%3E%3CmxCell%20id%3D%222%22%20value%3D%22Run%20Simulations%22%20style%3D%22text%3Bhtml%3D1%3Balign%3Dcenter%3BverticalAlign%3Dmiddle%3BwhiteSpace%3Dwrap%3Brounded%3D0%3BfontSize%3D8%3B%22%20vertex%3D%221%22%20parent%3D%221%22%3E%3CmxGeometry%20x%3D%22341.5%22%20y%3D%22480%22%20width%3D%2290%22%20height%3D%2220%22%20as%3D%22geometry%22%2F%3E%3C%2FmxCell%3E%3C%2Froot%3E%3C%2FmxGraphModel%3E&lt;/span&gt;" style="rounded=0;whiteSpace=wrap;html=1;" parent="1" vertex="1">
          <mxGeometry x="107.5" y="540" width="575" height="130" as="geometry" />
        </mxCell>
        <mxCell id="XBc1OOdAeteGwGD6JL_3-59" value="During Project Progression Simulation" style="text;html=1;align=center;verticalAlign=middle;whiteSpace=wrap;rounded=0;fontSize=10;" parent="1" vertex="1">
          <mxGeometry x="288.5" y="540" width="210" height="30" as="geometry" />
        </mxCell>
        <mxCell id="XBc1OOdAeteGwGD6JL_3-60" value="Current Renewable Capacity (MW):&lt;font color=&quot;#ff0000&quot;&gt;*&lt;/font&gt;" style="text;html=1;align=center;verticalAlign=middle;whiteSpace=wrap;rounded=0;fontSize=9;" parent="1" vertex="1">
          <mxGeometry x="125" y="570" width="155" height="10" as="geometry" />
        </mxCell>
        <mxCell id="XBc1OOdAeteGwGD6JL_3-61" value="" style="rounded=1;whiteSpace=wrap;html=1;" parent="1" vertex="1">
          <mxGeometry x="130" y="580" width="160" height="10" as="geometry" />
        </mxCell>
        <mxCell id="XBc1OOdAeteGwGD6JL_3-62" value="" style="rounded=1;whiteSpace=wrap;html=1;" parent="1" vertex="1">
          <mxGeometry x="315" y="580" width="160" height="10" as="geometry" />
        </mxCell>
        <mxCell id="XBc1OOdAeteGwGD6JL_3-63" value="" style="rounded=1;whiteSpace=wrap;html=1;" parent="1" vertex="1">
          <mxGeometry x="500" y="580" width="160" height="10" as="geometry" />
        </mxCell>
        <mxCell id="XBc1OOdAeteGwGD6JL_3-67" value="" style="rounded=1;whiteSpace=wrap;html=1;" parent="1" vertex="1">
          <mxGeometry x="130" y="620" width="490" height="10" as="geometry" />
        </mxCell>
        <mxCell id="XBc1OOdAeteGwGD6JL_3-68" value="Non-renewable Capacity Target (MW):&lt;font color=&quot;#ff0000&quot;&gt;*&lt;/font&gt;" style="text;html=1;align=center;verticalAlign=middle;whiteSpace=wrap;rounded=0;fontSize=9;" parent="1" vertex="1">
          <mxGeometry x="125" y="610" width="170" height="10" as="geometry" />
        </mxCell>
        <mxCell id="XBc1OOdAeteGwGD6JL_3-70" value="" style="rounded=1;whiteSpace=wrap;html=1;" parent="1" vertex="1">
          <mxGeometry x="333" y="480" width="107" height="20" as="geometry" />
        </mxCell>
        <mxCell id="XBc1OOdAeteGwGD6JL_3-71" value="Run Simulations" style="text;html=1;align=center;verticalAlign=middle;whiteSpace=wrap;rounded=0;fontSize=8;" parent="1" vertex="1">
          <mxGeometry x="341.5" y="480" width="90" height="20" as="geometry" />
        </mxCell>
        <mxCell id="XBc1OOdAeteGwGD6JL_3-74" value="Current Renewable Capacity (MW):&lt;font color=&quot;#ff0000&quot;&gt;*&lt;/font&gt;" style="text;html=1;align=center;verticalAlign=middle;whiteSpace=wrap;rounded=0;fontSize=9;" parent="1" vertex="1">
          <mxGeometry x="312" y="570" width="155" height="10" as="geometry" />
        </mxCell>
        <mxCell id="XBc1OOdAeteGwGD6JL_3-75" value="Current Renewable Capacity (MW):&lt;font color=&quot;#ff0000&quot;&gt;*&lt;/font&gt;" style="text;html=1;align=center;verticalAlign=middle;whiteSpace=wrap;rounded=0;fontSize=9;" parent="1" vertex="1">
          <mxGeometry x="495" y="570" width="155" height="10" as="geometry" />
        </mxCell>
        <mxCell id="XBc1OOdAeteGwGD6JL_3-76" value="" style="rounded=1;whiteSpace=wrap;html=1;" parent="1" vertex="1">
          <mxGeometry x="336" y="640" width="107" height="20" as="geometry" />
        </mxCell>
        <mxCell id="XBc1OOdAeteGwGD6JL_3-77" value="Run Simulations" style="text;html=1;align=center;verticalAlign=middle;whiteSpace=wrap;rounded=0;fontSize=8;" parent="1" vertex="1">
          <mxGeometry x="344.5" y="640" width="90" height="20" as="geometry" />
        </mxCell>
        <mxCell id="XBc1OOdAeteGwGD6JL_3-79" value="&lt;span style=&quot;color: rgba(0, 0, 0, 0); font-family: monospace; font-size: 0px; text-align: start; text-wrap: nowrap;&quot;&gt;%3CmxGraphModel%3E%3Croot%3E%3CmxCell%20id%3D%220%22%2F%3E%3CmxCell%20id%3D%221%22%20parent%3D%220%22%2F%3E%3CmxCell%20id%3D%222%22%20value%3D%22Run%20Simulations%22%20style%3D%22text%3Bhtml%3D1%3Balign%3Dcenter%3BverticalAlign%3Dmiddle%3BwhiteSpace%3Dwrap%3Brounded%3D0%3BfontSize%3D8%3B%22%20vertex%3D%221%22%20parent%3D%221%22%3E%3CmxGeometry%20x%3D%22341.5%22%20y%3D%22480%22%20width%3D%2290%22%20height%3D%2220%22%20as%3D%22geometry%22%2F%3E%3C%2FmxCell%3E%3C%2Froot%3E%3C%2FmxGraphModel%3E&lt;/span&gt;&lt;span style=&quot;color: rgba(0, 0, 0, 0); font-family: monospace; font-size: 0px; text-align: start; text-wrap: nowrap;&quot;&gt;%3CmxGraphModel%3E%3Croot%3E%3CmxCell%20id%3D%220%22%2F%3E%3CmxCell%20id%3D%221%22%20parent%3D%220%22%2F%3E%3CmxCell%20id%3D%222%22%20value%3D%22Run%20Simulations%22%20style%3D%22text%3Bhtml%3D1%3Balign%3Dcenter%3BverticalAlign%3Dmiddle%3BwhiteSpace%3Dwrap%3Brounded%3D0%3BfontSize%3D8%3B%22%20vertex%3D%221%22%20parent%3D%221%22%3E%3CmxGeometry%20x%3D%22341.5%22%20y%3D%22480%22%20width%3D%2290%22%20height%3D%2220%22%20as%3D%22geometry%22%2F%3E%3C%2FmxCell%3E%3C%2Froot%3E%3C%2FmxGraphModel%3E&lt;/span&gt;" style="rounded=0;whiteSpace=wrap;html=1;" parent="1" vertex="1">
          <mxGeometry x="90" y="680" width="610" height="90" as="geometry" />
        </mxCell>
        <mxCell id="XBc1OOdAeteGwGD6JL_3-80" value="Actual Data of Capacity Aditions and Retirements" style="text;html=1;align=center;verticalAlign=middle;whiteSpace=wrap;rounded=0;fontSize=10;" parent="1" vertex="1">
          <mxGeometry x="282.5" y="680" width="225" height="30" as="geometry" />
        </mxCell>
        <mxCell id="XBc1OOdAeteGwGD6JL_3-92" value="Year  Renewable Additions  Non-renewable Additions  Renewable Retirements  Non-renewable Retirements  Actions" style="swimlane;startSize=30;fontSize=10;" parent="1" vertex="1">
          <mxGeometry x="100" y="710" width="590" height="60" as="geometry" />
        </mxCell>
        <mxCell id="XBc1OOdAeteGwGD6JL_3-123" value="" style="endArrow=none;html=1;rounded=0;entryX=0.072;entryY=0.01;entryDx=0;entryDy=0;entryPerimeter=0;" parent="XBc1OOdAeteGwGD6JL_3-92" edge="1">
          <mxGeometry width="50" height="50" relative="1" as="geometry">
            <mxPoint x="147.63" y="50" as="sourcePoint" />
            <mxPoint x="147.63" as="targetPoint" />
          </mxGeometry>
        </mxCell>
        <mxCell id="XBc1OOdAeteGwGD6JL_3-124" value="" style="endArrow=none;html=1;rounded=0;entryX=0.072;entryY=0.01;entryDx=0;entryDy=0;entryPerimeter=0;" parent="XBc1OOdAeteGwGD6JL_3-92" edge="1">
          <mxGeometry width="50" height="50" relative="1" as="geometry">
            <mxPoint x="272.03999999999996" y="50" as="sourcePoint" />
            <mxPoint x="272.03999999999996" as="targetPoint" />
          </mxGeometry>
        </mxCell>
        <mxCell id="XBc1OOdAeteGwGD6JL_3-125" value="" style="endArrow=none;html=1;rounded=0;entryX=0.072;entryY=0.01;entryDx=0;entryDy=0;entryPerimeter=0;" parent="XBc1OOdAeteGwGD6JL_3-92" edge="1">
          <mxGeometry width="50" height="50" relative="1" as="geometry">
            <mxPoint x="390" y="50" as="sourcePoint" />
            <mxPoint x="390" as="targetPoint" />
          </mxGeometry>
        </mxCell>
        <mxCell id="XBc1OOdAeteGwGD6JL_3-126" value="&lt;font style=&quot;font-size: 9px;&quot;&gt;2025&lt;/font&gt;" style="text;html=1;align=center;verticalAlign=middle;whiteSpace=wrap;rounded=0;" parent="XBc1OOdAeteGwGD6JL_3-92" vertex="1">
          <mxGeometry x="-12.36999999999999" y="30" width="60" height="30" as="geometry" />
        </mxCell>
        <mxCell id="XBc1OOdAeteGwGD6JL_3-130" value="&lt;font style=&quot;font-size: 9px;&quot;&gt;65&lt;/font&gt;" style="text;html=1;align=center;verticalAlign=middle;whiteSpace=wrap;rounded=0;" parent="XBc1OOdAeteGwGD6JL_3-92" vertex="1">
          <mxGeometry x="427.63" y="30" width="60" height="30" as="geometry" />
        </mxCell>
        <mxCell id="XBc1OOdAeteGwGD6JL_3-122" value="" style="endArrow=none;html=1;rounded=0;entryX=0.072;entryY=0.01;entryDx=0;entryDy=0;entryPerimeter=0;exitX=0.914;exitY=1;exitDx=0;exitDy=0;exitPerimeter=0;" parent="XBc1OOdAeteGwGD6JL_3-92" source="XBc1OOdAeteGwGD6JL_3-126" target="XBc1OOdAeteGwGD6JL_3-92" edge="1">
          <mxGeometry width="50" height="50" relative="1" as="geometry">
            <mxPoint x="61" y="50" as="sourcePoint" />
            <mxPoint x="280" as="targetPoint" />
          </mxGeometry>
        </mxCell>
        <mxCell id="XBc1OOdAeteGwGD6JL_3-137" value="" style="endArrow=none;html=1;rounded=0;entryX=0.072;entryY=0.01;entryDx=0;entryDy=0;entryPerimeter=0;" parent="XBc1OOdAeteGwGD6JL_3-92" edge="1">
          <mxGeometry width="50" height="50" relative="1" as="geometry">
            <mxPoint x="530" y="50" as="sourcePoint" />
            <mxPoint x="530" as="targetPoint" />
          </mxGeometry>
        </mxCell>
        <mxCell id="XBc1OOdAeteGwGD6JL_3-139" value="&lt;div style=&quot;font-size: 11px;&quot;&gt;&lt;font color=&quot;#0000ff&quot; style=&quot;font-size: 11px;&quot;&gt;&lt;u&gt;Delete&lt;/u&gt;&lt;/font&gt;&lt;/div&gt;&lt;div style=&quot;font-size: 11px;&quot;&gt;&lt;font color=&quot;#0000ff&quot; style=&quot;font-size: 11px;&quot;&gt;&lt;u&gt;Update&lt;/u&gt;&lt;/font&gt;&lt;/div&gt;" style="text;html=1;align=center;verticalAlign=middle;whiteSpace=wrap;rounded=0;" parent="XBc1OOdAeteGwGD6JL_3-92" vertex="1">
          <mxGeometry x="530" y="30" width="60" height="30" as="geometry" />
        </mxCell>
        <mxCell id="XBc1OOdAeteGwGD6JL_3-100" value="" style="rounded=0;whiteSpace=wrap;html=1;" parent="1" vertex="1">
          <mxGeometry x="130" y="860" width="210" height="60" as="geometry" />
        </mxCell>
        <mxCell id="XBc1OOdAeteGwGD6JL_3-101" value="" style="rounded=0;whiteSpace=wrap;html=1;" parent="1" vertex="1">
          <mxGeometry x="125" y="980" width="220" height="60" as="geometry" />
        </mxCell>
        <mxCell id="XBc1OOdAeteGwGD6JL_3-102" value="" style="rounded=0;whiteSpace=wrap;html=1;" parent="1" vertex="1">
          <mxGeometry x="420" y="860" width="210" height="60" as="geometry" />
        </mxCell>
        <mxCell id="XBc1OOdAeteGwGD6JL_3-103" value="" style="rounded=0;whiteSpace=wrap;html=1;" parent="1" vertex="1">
          <mxGeometry x="420" y="980" width="216" height="60" as="geometry" />
        </mxCell>
        <mxCell id="XBc1OOdAeteGwGD6JL_3-104" value="" style="rounded=0;whiteSpace=wrap;html=1;" parent="1" vertex="1">
          <mxGeometry x="125" y="1100" width="220" height="69" as="geometry" />
        </mxCell>
        <mxCell id="XBc1OOdAeteGwGD6JL_3-105" value="" style="rounded=0;whiteSpace=wrap;html=1;" parent="1" vertex="1">
          <mxGeometry x="420" y="1100" width="220" height="69" as="geometry" />
        </mxCell>
        <mxCell id="XBc1OOdAeteGwGD6JL_3-106" value="&lt;div style=&quot;&quot;&gt;&lt;span style=&quot;background-color: initial;&quot;&gt;&lt;font style=&quot;font-size: 10px;&quot;&gt;Heading 2&lt;/font&gt;&lt;/span&gt;&lt;/div&gt;&lt;div style=&quot;&quot;&gt;&lt;span style=&quot;font-size: 7px; background-color: initial;&quot;&gt;Lorem ipsum dolor sit amet, consectetur adipisicing elit, sed do eiusmod tempor incididunt ut labore et dolore magna aliqua.&lt;/span&gt;&lt;/div&gt;" style="text;html=1;align=left;verticalAlign=middle;whiteSpace=wrap;rounded=0;" parent="1" vertex="1">
          <mxGeometry x="85" y="930" width="545" height="30" as="geometry" />
        </mxCell>
        <mxCell id="XBc1OOdAeteGwGD6JL_3-107" value="&lt;div style=&quot;&quot;&gt;&lt;span style=&quot;background-color: initial;&quot;&gt;&lt;font style=&quot;font-size: 10px;&quot;&gt;Heading 2&lt;/font&gt;&lt;/span&gt;&lt;/div&gt;&lt;div style=&quot;&quot;&gt;&lt;span style=&quot;font-size: 7px; background-color: initial;&quot;&gt;Lorem ipsum dolor sit amet, consectetur adipisicing elit, sed do eiusmod tempor incididunt ut labore et dolore magna aliqua.&lt;/span&gt;&lt;/div&gt;" style="text;html=1;align=left;verticalAlign=middle;whiteSpace=wrap;rounded=0;" parent="1" vertex="1">
          <mxGeometry x="80" y="1050" width="545" height="30" as="geometry" />
        </mxCell>
        <mxCell id="XBc1OOdAeteGwGD6JL_3-108" value="&lt;div style=&quot;&quot;&gt;&lt;span style=&quot;background-color: initial;&quot;&gt;&lt;font size=&quot;1&quot; style=&quot;&quot;&gt;&lt;b style=&quot;font-size: 17px;&quot;&gt;Model Results&lt;/b&gt;&lt;/font&gt;&lt;/span&gt;&lt;/div&gt;&lt;div style=&quot;&quot;&gt;&lt;span style=&quot;background-color: initial;&quot;&gt;&lt;font style=&quot;font-size: 10px;&quot;&gt;Heading 2&lt;/font&gt;&lt;/span&gt;&lt;/div&gt;&lt;div style=&quot;&quot;&gt;&lt;span style=&quot;font-size: 7px; background-color: initial;&quot;&gt;Lorem ipsum dolor sit amet, consectetur adipisicing elit, sed do eiusmod tempor incididunt ut labore et dolore magna aliqua.&lt;/span&gt;&lt;/div&gt;" style="text;html=1;align=left;verticalAlign=middle;whiteSpace=wrap;rounded=0;" parent="1" vertex="1">
          <mxGeometry x="85" y="780" width="545" height="60" as="geometry" />
        </mxCell>
        <mxCell id="XBc1OOdAeteGwGD6JL_3-109" value="" style="rounded=0;whiteSpace=wrap;html=1;" parent="1" vertex="1">
          <mxGeometry x="70" y="1190" width="650" height="100" as="geometry" />
        </mxCell>
        <mxCell id="XBc1OOdAeteGwGD6JL_3-110" value="" style="whiteSpace=wrap;html=1;aspect=fixed;" parent="1" vertex="1">
          <mxGeometry x="110" y="1205" width="70" height="70" as="geometry" />
        </mxCell>
        <mxCell id="XBc1OOdAeteGwGD6JL_3-111" value="Logo" style="text;html=1;align=center;verticalAlign=middle;whiteSpace=wrap;rounded=0;fontColor=#0000FF;" parent="1" vertex="1">
          <mxGeometry x="110" y="1225" width="70" height="30" as="geometry" />
        </mxCell>
        <mxCell id="XBc1OOdAeteGwGD6JL_3-113" value="Figure - Line plot" style="text;html=1;align=center;verticalAlign=middle;whiteSpace=wrap;rounded=0;" parent="1" vertex="1">
          <mxGeometry x="180" y="870" width="100" height="30" as="geometry" />
        </mxCell>
        <mxCell id="XBc1OOdAeteGwGD6JL_3-114" value="Figure - Line plot" style="text;html=1;align=center;verticalAlign=middle;whiteSpace=wrap;rounded=0;" parent="1" vertex="1">
          <mxGeometry x="470" y="870" width="100" height="30" as="geometry" />
        </mxCell>
        <mxCell id="XBc1OOdAeteGwGD6JL_3-115" value="Figure - Histogram" style="text;html=1;align=center;verticalAlign=middle;whiteSpace=wrap;rounded=0;" parent="1" vertex="1">
          <mxGeometry x="180" y="990" width="120" height="30" as="geometry" />
        </mxCell>
        <mxCell id="XBc1OOdAeteGwGD6JL_3-116" value="Figure - Histogram" style="text;html=1;align=center;verticalAlign=middle;whiteSpace=wrap;rounded=0;" parent="1" vertex="1">
          <mxGeometry x="460" y="990" width="120" height="30" as="geometry" />
        </mxCell>
        <mxCell id="XBc1OOdAeteGwGD6JL_3-117" value="Figure - Line plot" style="text;html=1;align=center;verticalAlign=middle;whiteSpace=wrap;rounded=0;" parent="1" vertex="1">
          <mxGeometry x="185" y="1119.5" width="100" height="30" as="geometry" />
        </mxCell>
        <mxCell id="XBc1OOdAeteGwGD6JL_3-118" value="Figure - Line plot" style="text;html=1;align=center;verticalAlign=middle;whiteSpace=wrap;rounded=0;" parent="1" vertex="1">
          <mxGeometry x="479" y="1119.5" width="98" height="30" as="geometry" />
        </mxCell>
        <mxCell id="XBc1OOdAeteGwGD6JL_3-119" value="About&lt;div&gt;&lt;u&gt;&lt;font color=&quot;#0000ff&quot;&gt;Loren&lt;/font&gt;&lt;/u&gt;&lt;/div&gt;&lt;div&gt;&lt;u&gt;&lt;font color=&quot;#0000ff&quot;&gt;Lorem&lt;/font&gt;&lt;/u&gt;&lt;/div&gt;&lt;div&gt;&lt;u&gt;&lt;font color=&quot;#0000ff&quot;&gt;Lorem&lt;/font&gt;&lt;/u&gt;&lt;/div&gt;" style="text;html=1;align=center;verticalAlign=middle;whiteSpace=wrap;rounded=0;" parent="1" vertex="1">
          <mxGeometry x="260" y="1232.5" width="60" height="15" as="geometry" />
        </mxCell>
        <mxCell id="XBc1OOdAeteGwGD6JL_3-120" value="Related Sites&lt;div&gt;&lt;span style=&quot;background-color: initial;&quot;&gt;&lt;u&gt;&lt;font color=&quot;#0000ff&quot;&gt;Loren&lt;/font&gt;&lt;/u&gt;&lt;/span&gt;&lt;div&gt;&lt;u&gt;&lt;font color=&quot;#0000ff&quot;&gt;Lorem&lt;/font&gt;&lt;/u&gt;&lt;/div&gt;&lt;div&gt;&lt;u&gt;&lt;font color=&quot;#0000ff&quot;&gt;Lorem&lt;/font&gt;&lt;/u&gt;&lt;/div&gt;&lt;/div&gt;" style="text;html=1;align=center;verticalAlign=middle;whiteSpace=wrap;rounded=0;" parent="1" vertex="1">
          <mxGeometry x="383" y="1232.5" width="77" height="15" as="geometry" />
        </mxCell>
        <mxCell id="XBc1OOdAeteGwGD6JL_3-121" value="&lt;div&gt;Contact&lt;/div&gt;&lt;div&gt;&lt;u&gt;&lt;font color=&quot;#0000ff&quot;&gt;Loren&lt;/font&gt;&lt;/u&gt;&lt;/div&gt;&lt;div&gt;&lt;u&gt;&lt;font color=&quot;#0000ff&quot;&gt;Lorem&lt;/font&gt;&lt;/u&gt;&lt;/div&gt;&lt;div&gt;&lt;u&gt;&lt;font color=&quot;#0000ff&quot;&gt;Lorem&lt;/font&gt;&lt;/u&gt;&lt;/div&gt;" style="text;html=1;align=center;verticalAlign=middle;whiteSpace=wrap;rounded=0;" parent="1" vertex="1">
          <mxGeometry x="532" y="1232.5" width="60" height="15" as="geometry" />
        </mxCell>
        <mxCell id="XBc1OOdAeteGwGD6JL_3-127" value="&lt;font style=&quot;font-size: 9px;&quot;&gt;30,000&lt;/font&gt;" style="text;html=1;align=center;verticalAlign=middle;whiteSpace=wrap;rounded=0;" parent="1" vertex="1">
          <mxGeometry x="180" y="740" width="60" height="30" as="geometry" />
        </mxCell>
        <mxCell id="XBc1OOdAeteGwGD6JL_3-128" value="&lt;font style=&quot;font-size: 9px;&quot;&gt;4,&lt;span style=&quot;color: rgba(0, 0, 0, 0); font-family: monospace; font-size: 0px; text-align: start; text-wrap: nowrap;&quot;&gt;%3CmxGraphModel%3E%3Croot%3E%3CmxCell%20id%3D%220%22%2F%3E%3CmxCell%20id%3D%221%22%20parent%3D%220%22%2F%3E%3CmxCell%20id%3D%222%22%20value%3D%22%26lt%3Bfont%20style%3D%26quot%3Bfont-size%3A%209px%3B%26quot%3B%26gt%3B2025%26lt%3B%2Ffont%26gt%3B%22%20style%3D%22text%3Bhtml%3D1%3Balign%3Dcenter%3BverticalAlign%3Dmiddle%3BwhiteSpace%3Dwrap%3Brounded%3D0%3B%22%20vertex%3D%221%22%20parent%3D%221%22%3E%3CmxGeometry%20x%3D%22110%22%20y%3D%22740%22%20width%3D%2260%22%20height%3D%2230%22%20as%3D%22geometry%22%2F%3E%3C%2FmxCell%3E%3C%2Froot%3E%3C%2FmxGraphModel%3E&lt;/span&gt;567&lt;/font&gt;" style="text;html=1;align=center;verticalAlign=middle;whiteSpace=wrap;rounded=0;" parent="1" vertex="1">
          <mxGeometry x="295" y="740" width="60" height="30" as="geometry" />
        </mxCell>
        <mxCell id="XBc1OOdAeteGwGD6JL_3-129" value="&lt;font style=&quot;font-size: 9px;&quot;&gt;39,546&lt;/font&gt;" style="text;html=1;align=center;verticalAlign=middle;whiteSpace=wrap;rounded=0;" parent="1" vertex="1">
          <mxGeometry x="420" y="740" width="60" height="30" as="geometry" />
        </mxCell>
        <mxCell id="XBc1OOdAeteGwGD6JL_3-131" value="" style="endArrow=none;html=1;rounded=0;entryX=0.969;entryY=0.392;entryDx=0;entryDy=0;entryPerimeter=0;" parent="1" edge="1">
          <mxGeometry width="50" height="50" relative="1" as="geometry">
            <mxPoint x="80" y="520" as="sourcePoint" />
            <mxPoint x="699.8499999999999" y="520" as="targetPoint" />
          </mxGeometry>
        </mxCell>
        <mxCell id="XBc1OOdAeteGwGD6JL_3-132" value="" style="endArrow=none;html=1;rounded=0;entryX=0.969;entryY=0.392;entryDx=0;entryDy=0;entryPerimeter=0;" parent="1" edge="1">
          <mxGeometry width="50" height="50" relative="1" as="geometry">
            <mxPoint x="85.15" y="780" as="sourcePoint" />
            <mxPoint x="704.9999999999999" y="780" as="targetPoint" />
          </mxGeometry>
        </mxCell>
        <mxCell id="XBc1OOdAeteGwGD6JL_3-136" value="" style="endArrow=none;html=1;rounded=0;entryX=0.969;entryY=0.392;entryDx=0;entryDy=0;entryPerimeter=0;" parent="1" edge="1">
          <mxGeometry width="50" height="50" relative="1" as="geometry">
            <mxPoint x="85.15" y="260" as="sourcePoint" />
            <mxPoint x="704.9999999999999" y="260" as="targetPoint" />
          </mxGeometry>
        </mxCell>
        <mxCell id="XDs8_OADTyl_-ZX20ji8-1" value="&lt;font style=&quot;font-size: 10px;&quot;&gt;Background image&lt;/font&gt;" style="text;html=1;align=center;verticalAlign=middle;whiteSpace=wrap;rounded=0;" vertex="1" parent="1">
          <mxGeometry x="90" y="230" width="120" height="30" as="geometry" />
        </mxCell>
        <mxCell id="XDs8_OADTyl_-ZX20ji8-2" value="" style="endArrow=classic;html=1;rounded=0;entryX=0.769;entryY=0.032;entryDx=0;entryDy=0;entryPerimeter=0;" edge="1" parent="1">
          <mxGeometry width="50" height="50" relative="1" as="geometry">
            <mxPoint x="498.5" y="100" as="sourcePoint" />
            <mxPoint x="560.3499999999999" y="80" as="targetPoint" />
          </mxGeometry>
        </mxCell>
        <mxCell id="XDs8_OADTyl_-ZX20ji8-4" value="&lt;font style=&quot;font-size: 8px;&quot;&gt;These are links&lt;/font&gt;" style="text;html=1;align=center;verticalAlign=middle;whiteSpace=wrap;rounded=0;" vertex="1" parent="1">
          <mxGeometry x="545.75" y="65" width="84.25" height="30" as="geometry" />
        </mxCell>
        <mxCell id="XDs8_OADTyl_-ZX20ji8-5" value="" style="endArrow=classic;html=1;rounded=0;entryX=0.662;entryY=0.16;entryDx=0;entryDy=0;entryPerimeter=0;" edge="1" parent="1" target="XBc1OOdAeteGwGD6JL_3-2">
          <mxGeometry width="50" height="50" relative="1" as="geometry">
            <mxPoint x="450.75" y="240" as="sourcePoint" />
            <mxPoint x="500.75" y="190" as="targetPoint" />
          </mxGeometry>
        </mxCell>
        <mxCell id="XDs8_OADTyl_-ZX20ji8-6" value="&lt;font style=&quot;font-size: 9px;&quot;&gt;Button (Scrolls to Pre Project Simulation Form)&lt;/font&gt;" style="text;html=1;align=center;verticalAlign=middle;whiteSpace=wrap;rounded=0;" vertex="1" parent="1">
          <mxGeometry x="495" y="225" width="205" height="30" as="geometry" />
        </mxCell>
        <mxCell id="XDs8_OADTyl_-ZX20ji8-8" value="" style="endArrow=classic;html=1;rounded=0;entryX=0.662;entryY=0.16;entryDx=0;entryDy=0;entryPerimeter=0;" edge="1" parent="1">
          <mxGeometry width="50" height="50" relative="1" as="geometry">
            <mxPoint x="443" y="489.5" as="sourcePoint" />
            <mxPoint x="492.25" y="489.5" as="targetPoint" />
          </mxGeometry>
        </mxCell>
        <mxCell id="XDs8_OADTyl_-ZX20ji8-9" value="&lt;font style=&quot;font-size: 9px;&quot;&gt;Button (Scrolls to Model Results section)&lt;/font&gt;" style="text;html=1;align=center;verticalAlign=middle;whiteSpace=wrap;rounded=0;" vertex="1" parent="1">
          <mxGeometry x="480.75" y="475" width="189.25" height="30" as="geometry" />
        </mxCell>
        <mxCell id="XDs8_OADTyl_-ZX20ji8-10" value="" style="endArrow=classic;html=1;rounded=0;entryX=0.662;entryY=0.16;entryDx=0;entryDy=0;entryPerimeter=0;" edge="1" parent="1">
          <mxGeometry width="50" height="50" relative="1" as="geometry">
            <mxPoint x="450" y="649.5" as="sourcePoint" />
            <mxPoint x="499.25" y="649.5" as="targetPoint" />
          </mxGeometry>
        </mxCell>
        <mxCell id="XDs8_OADTyl_-ZX20ji8-11" value="&lt;font style=&quot;font-size: 9px;&quot;&gt;Button&amp;nbsp;&lt;/font&gt;&lt;span style=&quot;font-size: 9px;&quot;&gt;(Scrolls to Model Results section)&lt;/span&gt;" style="text;html=1;align=center;verticalAlign=middle;whiteSpace=wrap;rounded=0;" vertex="1" parent="1">
          <mxGeometry x="485.75" y="635" width="194.25" height="30" as="geometry" />
        </mxCell>
        <mxCell id="XDs8_OADTyl_-ZX20ji8-12" value="" style="endArrow=classic;html=1;rounded=0;" edge="1" parent="1">
          <mxGeometry width="50" height="50" relative="1" as="geometry">
            <mxPoint x="475" y="340" as="sourcePoint" />
            <mxPoint x="525" y="290" as="targetPoint" />
          </mxGeometry>
        </mxCell>
        <mxCell id="XDs8_OADTyl_-ZX20ji8-13" value="&lt;font style=&quot;font-size: 9px;&quot;&gt;Form&lt;/font&gt;" style="text;html=1;align=center;verticalAlign=middle;whiteSpace=wrap;rounded=0;" vertex="1" parent="1">
          <mxGeometry x="515" y="270" width="60" height="30" as="geometry" />
        </mxCell>
        <mxCell id="XDs8_OADTyl_-ZX20ji8-14" value="" style="endArrow=classic;html=1;rounded=0;entryX=0.046;entryY=0.452;entryDx=0;entryDy=0;entryPerimeter=0;exitX=0;exitY=0.75;exitDx=0;exitDy=0;" edge="1" parent="1" source="XBc1OOdAeteGwGD6JL_3-58" target="XBc1OOdAeteGwGD6JL_3-2">
          <mxGeometry width="50" height="50" relative="1" as="geometry">
            <mxPoint x="80" y="610" as="sourcePoint" />
            <mxPoint x="136.79999999999995" y="600" as="targetPoint" />
          </mxGeometry>
        </mxCell>
        <mxCell id="XDs8_OADTyl_-ZX20ji8-15" value="&lt;font style=&quot;font-size: 8px;&quot;&gt;Form&lt;/font&gt;" style="text;html=1;align=center;verticalAlign=middle;whiteSpace=wrap;rounded=0;rotation=-90;" vertex="1" parent="1">
          <mxGeometry x="70" y="580" width="60" height="30" as="geometry" />
        </mxCell>
        <mxCell id="XDs8_OADTyl_-ZX20ji8-17" value="" style="endArrow=classic;html=1;rounded=0;entryX=0.969;entryY=0.472;entryDx=0;entryDy=0;entryPerimeter=0;" edge="1" parent="1" target="XBc1OOdAeteGwGD6JL_3-2">
          <mxGeometry width="50" height="50" relative="1" as="geometry">
            <mxPoint x="690" y="680" as="sourcePoint" />
            <mxPoint x="740" y="630" as="targetPoint" />
          </mxGeometry>
        </mxCell>
        <mxCell id="XDs8_OADTyl_-ZX20ji8-19" value="&lt;font style=&quot;font-size: 8px;&quot;&gt;Table&lt;/font&gt;" style="text;html=1;align=center;verticalAlign=middle;whiteSpace=wrap;rounded=0;rotation=-90;" vertex="1" parent="1">
          <mxGeometry x="670.75" y="605" width="60" height="30" as="geometry" />
        </mxCell>
        <mxCell id="XDs8_OADTyl_-ZX20ji8-20" value="Renewable Capacity Simulations" style="text;html=1;align=center;verticalAlign=middle;whiteSpace=wrap;rounded=0;" vertex="1" parent="1">
          <mxGeometry x="120" y="840" width="200" height="30" as="geometry" />
        </mxCell>
        <mxCell id="XDs8_OADTyl_-ZX20ji8-21" value="Non-renewable Capacity Simulations" style="text;html=1;align=center;verticalAlign=middle;whiteSpace=wrap;rounded=0;" vertex="1" parent="1">
          <mxGeometry x="407.5" y="840" width="232.5" height="30" as="geometry" />
        </mxCell>
        <mxCell id="XDs8_OADTyl_-ZX20ji8-24" value="Renewable Final Capacities" style="text;html=1;align=center;verticalAlign=middle;whiteSpace=wrap;rounded=0;" vertex="1" parent="1">
          <mxGeometry x="115" y="960" width="175" height="30" as="geometry" />
        </mxCell>
        <mxCell id="XDs8_OADTyl_-ZX20ji8-25" value="Non-renewable Final Capacities" style="text;html=1;align=center;verticalAlign=middle;whiteSpace=wrap;rounded=0;" vertex="1" parent="1">
          <mxGeometry x="420" y="960" width="180" height="30" as="geometry" />
        </mxCell>
        <mxCell id="XDs8_OADTyl_-ZX20ji8-26" value="Renewable Capacity Percentiles" style="text;html=1;align=center;verticalAlign=middle;whiteSpace=wrap;rounded=0;" vertex="1" parent="1">
          <mxGeometry x="117.5" y="1080" width="192.5" height="30" as="geometry" />
        </mxCell>
        <mxCell id="XDs8_OADTyl_-ZX20ji8-27" value="Non-renewable Capacity Percentiles" style="text;html=1;align=center;verticalAlign=middle;whiteSpace=wrap;rounded=0;" vertex="1" parent="1">
          <mxGeometry x="417.5" y="1080" width="202.5" height="30" as="geometry" />
        </mxCell>
        <mxCell id="XDs8_OADTyl_-ZX20ji8-28" value="&lt;font style=&quot;font-size: 8px;&quot;&gt;These are links&lt;/font&gt;" style="text;html=1;align=center;verticalAlign=middle;whiteSpace=wrap;rounded=0;" vertex="1" parent="1">
          <mxGeometry x="625" y="1225" width="84.25" height="30" as="geometry" />
        </mxCell>
        <mxCell id="XDs8_OADTyl_-ZX20ji8-29" value="" style="endArrow=classic;html=1;rounded=0;" edge="1" parent="1">
          <mxGeometry width="50" height="50" relative="1" as="geometry">
            <mxPoint x="580" y="1247.5" as="sourcePoint" />
            <mxPoint x="640" y="1240" as="targetPoint" />
          </mxGeometry>
        </mxCell>
      </root>
    </mxGraphModel>
  </diagram>
</mxfile>
